<mxfile host="Electron" agent="Mozilla/5.0 (Windows NT 10.0; Win64; x64) AppleWebKit/537.36 (KHTML, like Gecko) draw.io/24.7.17 Chrome/128.0.6613.36 Electron/32.0.1 Safari/537.36" version="24.7.17">
  <diagram name="Sayfa -1" id="sdKzRlOOC9JEpz0AFrnF">
    <mxGraphModel dx="2767" dy="1090" grid="1" gridSize="10" guides="1" tooltips="1" connect="1" arrows="1" fold="1" page="0" pageScale="1" pageWidth="827" pageHeight="1169" math="0" shadow="0">
      <root>
        <mxCell id="0" />
        <mxCell id="1" parent="0" />
        <mxCell id="Nq6BLDotqTQFLmam7o5p-18" style="rounded=0;orthogonalLoop=1;jettySize=auto;html=1;exitX=1;exitY=0.5;exitDx=0;exitDy=0;entryX=0;entryY=0.5;entryDx=0;entryDy=0;endArrow=none;endFill=0;" parent="1" source="Nq6BLDotqTQFLmam7o5p-8" target="Nq6BLDotqTQFLmam7o5p-17" edge="1">
          <mxGeometry relative="1" as="geometry" />
        </mxCell>
        <mxCell id="Nq6BLDotqTQFLmam7o5p-59" value="(1,1)" style="edgeLabel;html=1;align=center;verticalAlign=middle;resizable=0;points=[];" parent="Nq6BLDotqTQFLmam7o5p-18" vertex="1" connectable="0">
          <mxGeometry x="-0.0355" relative="1" as="geometry">
            <mxPoint as="offset" />
          </mxGeometry>
        </mxCell>
        <mxCell id="Nq6BLDotqTQFLmam7o5p-85" style="rounded=0;orthogonalLoop=1;jettySize=auto;html=1;exitX=0;exitY=0.5;exitDx=0;exitDy=0;entryX=1;entryY=0.5;entryDx=0;entryDy=0;endArrow=none;endFill=0;" parent="1" source="Nq6BLDotqTQFLmam7o5p-8" target="Nq6BLDotqTQFLmam7o5p-84" edge="1">
          <mxGeometry relative="1" as="geometry" />
        </mxCell>
        <mxCell id="x3Jfu9dbNZR2VIMgYm1r-1" style="rounded=0;orthogonalLoop=1;jettySize=auto;html=1;endArrow=none;endFill=0;entryX=0.5;entryY=1;entryDx=0;entryDy=0;exitX=0;exitY=0.5;exitDx=0;exitDy=0;" parent="1" source="Nq6BLDotqTQFLmam7o5p-8" target="x3Jfu9dbNZR2VIMgYm1r-3" edge="1">
          <mxGeometry relative="1" as="geometry">
            <mxPoint x="-951.3239392383216" y="-137.33424304671408" as="targetPoint" />
          </mxGeometry>
        </mxCell>
        <mxCell id="Nq6BLDotqTQFLmam7o5p-8" value="coaches" style="rounded=0;whiteSpace=wrap;html=1;fillColor=#A1A1A1;" parent="1" vertex="1">
          <mxGeometry x="-1001.46" y="-111.78999999999999" width="100" height="30" as="geometry" />
        </mxCell>
        <mxCell id="Nq6BLDotqTQFLmam7o5p-22" style="rounded=0;orthogonalLoop=1;jettySize=auto;html=1;exitX=0.5;exitY=1;exitDx=0;exitDy=0;entryX=0.5;entryY=0;entryDx=0;entryDy=0;endArrow=none;endFill=0;" parent="1" source="Nq6BLDotqTQFLmam7o5p-9" target="Nq6BLDotqTQFLmam7o5p-21" edge="1">
          <mxGeometry relative="1" as="geometry" />
        </mxCell>
        <mxCell id="Nq6BLDotqTQFLmam7o5p-63" value="(1,N)" style="edgeLabel;html=1;align=center;verticalAlign=middle;resizable=0;points=[];" parent="Nq6BLDotqTQFLmam7o5p-22" vertex="1" connectable="0">
          <mxGeometry x="0.0338" y="-1" relative="1" as="geometry">
            <mxPoint as="offset" />
          </mxGeometry>
        </mxCell>
        <mxCell id="Nq6BLDotqTQFLmam7o5p-45" style="rounded=0;orthogonalLoop=1;jettySize=auto;html=1;exitX=1;exitY=0.5;exitDx=0;exitDy=0;entryX=0;entryY=0.5;entryDx=0;entryDy=0;endArrow=none;endFill=0;" parent="1" source="Nq6BLDotqTQFLmam7o5p-9" target="Nq6BLDotqTQFLmam7o5p-44" edge="1">
          <mxGeometry relative="1" as="geometry" />
        </mxCell>
        <mxCell id="Nq6BLDotqTQFLmam7o5p-78" value="(0,N)" style="edgeLabel;html=1;align=center;verticalAlign=middle;resizable=0;points=[];" parent="Nq6BLDotqTQFLmam7o5p-45" vertex="1" connectable="0">
          <mxGeometry x="0.1146" y="1" relative="1" as="geometry">
            <mxPoint as="offset" />
          </mxGeometry>
        </mxCell>
        <mxCell id="Nq6BLDotqTQFLmam7o5p-57" style="rounded=0;orthogonalLoop=1;jettySize=auto;html=1;exitX=1;exitY=0.5;exitDx=0;exitDy=0;entryX=0;entryY=0.5;entryDx=0;entryDy=0;endArrow=none;endFill=0;" parent="1" source="Nq6BLDotqTQFLmam7o5p-9" target="Nq6BLDotqTQFLmam7o5p-53" edge="1">
          <mxGeometry relative="1" as="geometry" />
        </mxCell>
        <mxCell id="Nq6BLDotqTQFLmam7o5p-75" value="(0,N)" style="edgeLabel;html=1;align=center;verticalAlign=middle;resizable=0;points=[];" parent="Nq6BLDotqTQFLmam7o5p-57" vertex="1" connectable="0">
          <mxGeometry x="-0.009" y="1" relative="1" as="geometry">
            <mxPoint as="offset" />
          </mxGeometry>
        </mxCell>
        <mxCell id="Nq6BLDotqTQFLmam7o5p-9" value="teams" style="rounded=0;whiteSpace=wrap;html=1;fillColor=#A1A1A1;" parent="1" vertex="1">
          <mxGeometry x="-571.46" y="-111.78999999999999" width="100" height="30" as="geometry" />
        </mxCell>
        <mxCell id="Nq6BLDotqTQFLmam7o5p-10" value="match_results" style="rounded=0;whiteSpace=wrap;html=1;fillColor=#A1A1A1;" parent="1" vertex="1">
          <mxGeometry y="-115" width="100" height="30" as="geometry" />
        </mxCell>
        <mxCell id="Nq6BLDotqTQFLmam7o5p-35" style="rounded=0;orthogonalLoop=1;jettySize=auto;html=1;exitX=0.5;exitY=1;exitDx=0;exitDy=0;entryX=0.5;entryY=0;entryDx=0;entryDy=0;endArrow=none;endFill=0;" parent="1" source="Nq6BLDotqTQFLmam7o5p-11" target="Nq6BLDotqTQFLmam7o5p-34" edge="1">
          <mxGeometry relative="1" as="geometry" />
        </mxCell>
        <mxCell id="Nq6BLDotqTQFLmam7o5p-66" value="(1,1)" style="edgeLabel;html=1;align=center;verticalAlign=middle;resizable=0;points=[];" parent="Nq6BLDotqTQFLmam7o5p-35" vertex="1" connectable="0">
          <mxGeometry x="-0.1529" y="-1" relative="1" as="geometry">
            <mxPoint as="offset" />
          </mxGeometry>
        </mxCell>
        <mxCell id="Nq6BLDotqTQFLmam7o5p-11" value="players" style="rounded=0;whiteSpace=wrap;html=1;fillColor=#A1A1A1;" parent="1" vertex="1">
          <mxGeometry x="-790" y="260" width="100" height="30" as="geometry" />
        </mxCell>
        <mxCell id="Nq6BLDotqTQFLmam7o5p-32" style="rounded=0;orthogonalLoop=1;jettySize=auto;html=1;exitX=0.5;exitY=1;exitDx=0;exitDy=0;entryX=0.5;entryY=0;entryDx=0;entryDy=0;endArrow=none;endFill=0;" parent="1" source="Nq6BLDotqTQFLmam7o5p-12" target="Nq6BLDotqTQFLmam7o5p-31" edge="1">
          <mxGeometry relative="1" as="geometry">
            <mxPoint x="-345" y="355" as="sourcePoint" />
          </mxGeometry>
        </mxCell>
        <mxCell id="Nq6BLDotqTQFLmam7o5p-70" value="(1,1)" style="edgeLabel;html=1;align=center;verticalAlign=middle;resizable=0;points=[];" parent="Nq6BLDotqTQFLmam7o5p-32" vertex="1" connectable="0">
          <mxGeometry x="-0.0723" relative="1" as="geometry">
            <mxPoint as="offset" />
          </mxGeometry>
        </mxCell>
        <mxCell id="x3Jfu9dbNZR2VIMgYm1r-59" value="Text" style="edgeLabel;html=1;align=center;verticalAlign=middle;resizable=0;points=[];fontFamily=Helvetica;fontSize=11;fontColor=default;labelBackgroundColor=default;" parent="Nq6BLDotqTQFLmam7o5p-32" vertex="1" connectable="0">
          <mxGeometry x="0.3912" y="-1" relative="1" as="geometry">
            <mxPoint as="offset" />
          </mxGeometry>
        </mxCell>
        <mxCell id="Nq6BLDotqTQFLmam7o5p-48" style="rounded=0;orthogonalLoop=1;jettySize=auto;html=1;exitX=1;exitY=0.5;exitDx=0;exitDy=0;entryX=0;entryY=0.5;entryDx=0;entryDy=0;endArrow=none;endFill=0;" parent="1" source="Nq6BLDotqTQFLmam7o5p-12" target="Nq6BLDotqTQFLmam7o5p-47" edge="1">
          <mxGeometry relative="1" as="geometry">
            <mxPoint x="-315" y="250" as="targetPoint" />
          </mxGeometry>
        </mxCell>
        <mxCell id="Nq6BLDotqTQFLmam7o5p-72" value="(1,N)" style="edgeLabel;html=1;align=center;verticalAlign=middle;resizable=0;points=[];" parent="Nq6BLDotqTQFLmam7o5p-48" vertex="1" connectable="0">
          <mxGeometry x="0.0286" y="-1" relative="1" as="geometry">
            <mxPoint as="offset" />
          </mxGeometry>
        </mxCell>
        <mxCell id="Nq6BLDotqTQFLmam7o5p-12" value="tournaments" style="rounded=0;whiteSpace=wrap;html=1;fillColor=#A1A1A1;" parent="1" vertex="1">
          <mxGeometry x="-475" y="260" width="100" height="30" as="geometry" />
        </mxCell>
        <mxCell id="Nq6BLDotqTQFLmam7o5p-13" value="sports" style="rounded=0;whiteSpace=wrap;html=1;fillColor=#A1A1A1;" parent="1" vertex="1">
          <mxGeometry x="-270" y="415" width="100" height="30" as="geometry" />
        </mxCell>
        <mxCell id="Nq6BLDotqTQFLmam7o5p-39" style="rounded=0;orthogonalLoop=1;jettySize=auto;html=1;exitX=0;exitY=0.5;exitDx=0;exitDy=0;entryX=1;entryY=0.5;entryDx=0;entryDy=0;endArrow=none;endFill=0;" parent="1" source="Nq6BLDotqTQFLmam7o5p-15" target="Nq6BLDotqTQFLmam7o5p-38" edge="1">
          <mxGeometry relative="1" as="geometry" />
        </mxCell>
        <mxCell id="Nq6BLDotqTQFLmam7o5p-83" value="(1,M)" style="edgeLabel;html=1;align=center;verticalAlign=middle;resizable=0;points=[];" parent="Nq6BLDotqTQFLmam7o5p-39" vertex="1" connectable="0">
          <mxGeometry x="-0.0031" y="1" relative="1" as="geometry">
            <mxPoint as="offset" />
          </mxGeometry>
        </mxCell>
        <mxCell id="Nq6BLDotqTQFLmam7o5p-15" value="referees" style="rounded=0;whiteSpace=wrap;html=1;fillColor=#999999;" parent="1" vertex="1">
          <mxGeometry x="420" y="125" width="100" height="30" as="geometry" />
        </mxCell>
        <mxCell id="Nq6BLDotqTQFLmam7o5p-51" style="rounded=0;orthogonalLoop=1;jettySize=auto;html=1;exitX=1;exitY=0.5;exitDx=0;exitDy=0;entryX=0;entryY=0.5;entryDx=0;entryDy=0;endArrow=none;endFill=0;" parent="1" source="Nq6BLDotqTQFLmam7o5p-16" target="Nq6BLDotqTQFLmam7o5p-50" edge="1">
          <mxGeometry relative="1" as="geometry" />
        </mxCell>
        <mxCell id="Nq6BLDotqTQFLmam7o5p-68" value="(0,1)" style="edgeLabel;html=1;align=center;verticalAlign=middle;resizable=0;points=[];" parent="Nq6BLDotqTQFLmam7o5p-51" vertex="1" connectable="0">
          <mxGeometry x="0.0205" y="2" relative="1" as="geometry">
            <mxPoint as="offset" />
          </mxGeometry>
        </mxCell>
        <mxCell id="Nq6BLDotqTQFLmam7o5p-16" value="player_stats" style="rounded=0;whiteSpace=wrap;html=1;fillColor=#A1A1A1;" parent="1" vertex="1">
          <mxGeometry x="-790" y="580" width="100" height="30" as="geometry" />
        </mxCell>
        <mxCell id="Nq6BLDotqTQFLmam7o5p-19" style="rounded=0;orthogonalLoop=1;jettySize=auto;html=1;exitX=1;exitY=0.5;exitDx=0;exitDy=0;entryX=0;entryY=0.5;entryDx=0;entryDy=0;endArrow=none;endFill=0;" parent="1" source="Nq6BLDotqTQFLmam7o5p-17" target="Nq6BLDotqTQFLmam7o5p-9" edge="1">
          <mxGeometry relative="1" as="geometry" />
        </mxCell>
        <mxCell id="Nq6BLDotqTQFLmam7o5p-60" value="(1,1)" style="edgeLabel;html=1;align=center;verticalAlign=middle;resizable=0;points=[];" parent="Nq6BLDotqTQFLmam7o5p-19" vertex="1" connectable="0">
          <mxGeometry x="-0.1064" relative="1" as="geometry">
            <mxPoint as="offset" />
          </mxGeometry>
        </mxCell>
        <mxCell id="Nq6BLDotqTQFLmam7o5p-17" value="COACHES" style="rhombus;whiteSpace=wrap;html=1;fillColor=#CCCCCC;strokeColor=default;" parent="1" vertex="1">
          <mxGeometry x="-805" y="-126.78999999999999" width="130" height="60" as="geometry" />
        </mxCell>
        <mxCell id="Nq6BLDotqTQFLmam7o5p-23" style="rounded=0;orthogonalLoop=1;jettySize=auto;html=1;exitX=0.5;exitY=1;exitDx=0;exitDy=0;entryX=0.5;entryY=0;entryDx=0;entryDy=0;endArrow=none;endFill=0;" parent="1" source="Nq6BLDotqTQFLmam7o5p-21" target="Nq6BLDotqTQFLmam7o5p-11" edge="1">
          <mxGeometry relative="1" as="geometry" />
        </mxCell>
        <mxCell id="Nq6BLDotqTQFLmam7o5p-61" value="(1,1)" style="edgeLabel;html=1;align=center;verticalAlign=middle;resizable=0;points=[];" parent="Nq6BLDotqTQFLmam7o5p-23" vertex="1" connectable="0">
          <mxGeometry x="-0.0382" y="-2" relative="1" as="geometry">
            <mxPoint as="offset" />
          </mxGeometry>
        </mxCell>
        <mxCell id="Nq6BLDotqTQFLmam7o5p-21" value="PLAYS_FOR" style="rhombus;whiteSpace=wrap;html=1;fillColor=#CCCCCC;strokeColor=default;" parent="1" vertex="1">
          <mxGeometry x="-805" y="110" width="130" height="60" as="geometry" />
        </mxCell>
        <mxCell id="Nq6BLDotqTQFLmam7o5p-27" style="rounded=0;orthogonalLoop=1;jettySize=auto;html=1;exitX=0.5;exitY=1;exitDx=0;exitDy=0;entryX=0.5;entryY=0;entryDx=0;entryDy=0;endArrow=none;endFill=0;" parent="1" source="Nq6BLDotqTQFLmam7o5p-9" target="Nq6BLDotqTQFLmam7o5p-30" edge="1">
          <mxGeometry relative="1" as="geometry">
            <mxPoint x="-400" y="35" as="sourcePoint" />
          </mxGeometry>
        </mxCell>
        <mxCell id="Nq6BLDotqTQFLmam7o5p-64" value="(0,N)" style="edgeLabel;html=1;align=center;verticalAlign=middle;resizable=0;points=[];" parent="Nq6BLDotqTQFLmam7o5p-27" vertex="1" connectable="0">
          <mxGeometry x="0.0281" relative="1" as="geometry">
            <mxPoint as="offset" />
          </mxGeometry>
        </mxCell>
        <mxCell id="Nq6BLDotqTQFLmam7o5p-29" style="rounded=0;orthogonalLoop=1;jettySize=auto;html=1;exitX=0.5;exitY=1;exitDx=0;exitDy=0;entryX=0.5;entryY=0;entryDx=0;entryDy=0;endArrow=none;endFill=0;" parent="1" source="Nq6BLDotqTQFLmam7o5p-30" target="Nq6BLDotqTQFLmam7o5p-12" edge="1">
          <mxGeometry relative="1" as="geometry">
            <mxPoint x="-425" y="270" as="targetPoint" />
          </mxGeometry>
        </mxCell>
        <mxCell id="Nq6BLDotqTQFLmam7o5p-65" value="(2,M)" style="edgeLabel;html=1;align=center;verticalAlign=middle;resizable=0;points=[];" parent="Nq6BLDotqTQFLmam7o5p-29" vertex="1" connectable="0">
          <mxGeometry x="-0.0824" relative="1" as="geometry">
            <mxPoint as="offset" />
          </mxGeometry>
        </mxCell>
        <mxCell id="Nq6BLDotqTQFLmam7o5p-30" value="ATTEND" style="rhombus;whiteSpace=wrap;html=1;fillColor=#CCCCCC;strokeColor=default;" parent="1" vertex="1">
          <mxGeometry x="-490" y="110" width="130" height="60" as="geometry" />
        </mxCell>
        <mxCell id="Nq6BLDotqTQFLmam7o5p-31" value="INCLUDES" style="rhombus;whiteSpace=wrap;html=1;fillColor=#CCCCCC;strokeColor=default;" parent="1" vertex="1">
          <mxGeometry x="-490" y="400" width="130" height="60" as="geometry" />
        </mxCell>
        <mxCell id="Nq6BLDotqTQFLmam7o5p-33" style="rounded=0;orthogonalLoop=1;jettySize=auto;html=1;exitX=1;exitY=0.5;exitDx=0;exitDy=0;entryX=0;entryY=0.5;entryDx=0;entryDy=0;endArrow=none;endFill=0;" parent="1" source="Nq6BLDotqTQFLmam7o5p-31" target="Nq6BLDotqTQFLmam7o5p-13" edge="1">
          <mxGeometry relative="1" as="geometry">
            <mxPoint x="-130" y="414.71" as="sourcePoint" />
            <mxPoint x="-35" y="414.71" as="targetPoint" />
          </mxGeometry>
        </mxCell>
        <mxCell id="Nq6BLDotqTQFLmam7o5p-71" value="(0,N)" style="edgeLabel;html=1;align=center;verticalAlign=middle;resizable=0;points=[];" parent="Nq6BLDotqTQFLmam7o5p-33" vertex="1" connectable="0">
          <mxGeometry x="-0.0771" y="1" relative="1" as="geometry">
            <mxPoint as="offset" />
          </mxGeometry>
        </mxCell>
        <mxCell id="Nq6BLDotqTQFLmam7o5p-36" style="rounded=0;orthogonalLoop=1;jettySize=auto;html=1;exitX=0.5;exitY=1;exitDx=0;exitDy=0;entryX=0.5;entryY=0;entryDx=0;entryDy=0;endArrow=none;endFill=0;" parent="1" source="Nq6BLDotqTQFLmam7o5p-34" target="Nq6BLDotqTQFLmam7o5p-16" edge="1">
          <mxGeometry relative="1" as="geometry" />
        </mxCell>
        <mxCell id="Nq6BLDotqTQFLmam7o5p-67" value="(1,1)" style="edgeLabel;html=1;align=center;verticalAlign=middle;resizable=0;points=[];" parent="Nq6BLDotqTQFLmam7o5p-36" vertex="1" connectable="0">
          <mxGeometry x="-0.0711" y="-1" relative="1" as="geometry">
            <mxPoint as="offset" />
          </mxGeometry>
        </mxCell>
        <mxCell id="Nq6BLDotqTQFLmam7o5p-34" value="HAVE_STATS" style="rhombus;whiteSpace=wrap;html=1;fillColor=#CCCCCC;strokeColor=default;" parent="1" vertex="1">
          <mxGeometry x="-805" y="400" width="130" height="60" as="geometry" />
        </mxCell>
        <mxCell id="Nq6BLDotqTQFLmam7o5p-42" style="rounded=0;orthogonalLoop=1;jettySize=auto;html=1;exitX=0.5;exitY=0;exitDx=0;exitDy=0;entryX=0.5;entryY=1;entryDx=0;entryDy=0;endArrow=none;endFill=0;" parent="1" source="Nq6BLDotqTQFLmam7o5p-37" target="Nq6BLDotqTQFLmam7o5p-41" edge="1">
          <mxGeometry relative="1" as="geometry">
            <mxPoint x="70" y="200" as="targetPoint" />
          </mxGeometry>
        </mxCell>
        <mxCell id="Nq6BLDotqTQFLmam7o5p-80" value="(1,1)" style="edgeLabel;html=1;align=center;verticalAlign=middle;resizable=0;points=[];" parent="Nq6BLDotqTQFLmam7o5p-42" vertex="1" connectable="0">
          <mxGeometry x="0.0906" relative="1" as="geometry">
            <mxPoint as="offset" />
          </mxGeometry>
        </mxCell>
        <mxCell id="Nq6BLDotqTQFLmam7o5p-52" style="rounded=0;orthogonalLoop=1;jettySize=auto;html=1;exitX=0.5;exitY=1;exitDx=0;exitDy=0;entryX=0.5;entryY=0;entryDx=0;entryDy=0;endArrow=none;endFill=0;" parent="1" source="Nq6BLDotqTQFLmam7o5p-37" target="Nq6BLDotqTQFLmam7o5p-50" edge="1">
          <mxGeometry relative="1" as="geometry" />
        </mxCell>
        <mxCell id="Nq6BLDotqTQFLmam7o5p-69" value="(1,N)" style="edgeLabel;html=1;align=center;verticalAlign=middle;resizable=0;points=[];" parent="Nq6BLDotqTQFLmam7o5p-52" vertex="1" connectable="0">
          <mxGeometry x="-0.0909" y="-1" relative="1" as="geometry">
            <mxPoint as="offset" />
          </mxGeometry>
        </mxCell>
        <mxCell id="Nq6BLDotqTQFLmam7o5p-37" value="matches" style="rounded=0;whiteSpace=wrap;html=1;fillColor=#A1A1A1;" parent="1" vertex="1">
          <mxGeometry y="125" width="100" height="30" as="geometry" />
        </mxCell>
        <mxCell id="Nq6BLDotqTQFLmam7o5p-40" style="rounded=0;orthogonalLoop=1;jettySize=auto;html=1;exitX=0;exitY=0.5;exitDx=0;exitDy=0;entryX=1;entryY=0.5;entryDx=0;entryDy=0;endArrow=none;endFill=0;" parent="1" source="Nq6BLDotqTQFLmam7o5p-38" target="Nq6BLDotqTQFLmam7o5p-37" edge="1">
          <mxGeometry relative="1" as="geometry" />
        </mxCell>
        <mxCell id="Nq6BLDotqTQFLmam7o5p-82" value="(1,N)" style="edgeLabel;html=1;align=center;verticalAlign=middle;resizable=0;points=[];" parent="Nq6BLDotqTQFLmam7o5p-40" vertex="1" connectable="0">
          <mxGeometry x="0.0199" y="-1" relative="1" as="geometry">
            <mxPoint as="offset" />
          </mxGeometry>
        </mxCell>
        <mxCell id="Nq6BLDotqTQFLmam7o5p-38" value="HAVE_REFREES" style="rhombus;whiteSpace=wrap;html=1;fillColor=#CCCCCC;strokeColor=default;" parent="1" vertex="1">
          <mxGeometry x="200" y="110" width="130" height="60" as="geometry" />
        </mxCell>
        <mxCell id="Nq6BLDotqTQFLmam7o5p-43" style="rounded=0;orthogonalLoop=1;jettySize=auto;html=1;exitX=0.5;exitY=0;exitDx=0;exitDy=0;entryX=0.5;entryY=1;entryDx=0;entryDy=0;endArrow=none;endFill=0;" parent="1" source="Nq6BLDotqTQFLmam7o5p-41" target="Nq6BLDotqTQFLmam7o5p-10" edge="1">
          <mxGeometry relative="1" as="geometry" />
        </mxCell>
        <mxCell id="Nq6BLDotqTQFLmam7o5p-81" value="(1,1)" style="edgeLabel;html=1;align=center;verticalAlign=middle;resizable=0;points=[];" parent="Nq6BLDotqTQFLmam7o5p-43" vertex="1" connectable="0">
          <mxGeometry x="0.0768" relative="1" as="geometry">
            <mxPoint as="offset" />
          </mxGeometry>
        </mxCell>
        <mxCell id="Nq6BLDotqTQFLmam7o5p-41" value="RESULTS" style="rhombus;whiteSpace=wrap;html=1;fillColor=#CCCCCC;strokeColor=default;" parent="1" vertex="1">
          <mxGeometry x="-15" y="-10" width="130" height="60" as="geometry" />
        </mxCell>
        <mxCell id="Nq6BLDotqTQFLmam7o5p-46" style="rounded=0;orthogonalLoop=1;jettySize=auto;html=1;exitX=1;exitY=0.5;exitDx=0;exitDy=0;entryX=0;entryY=0.5;entryDx=0;entryDy=0;endArrow=none;endFill=0;" parent="1" source="Nq6BLDotqTQFLmam7o5p-44" target="Nq6BLDotqTQFLmam7o5p-10" edge="1">
          <mxGeometry relative="1" as="geometry" />
        </mxCell>
        <mxCell id="Nq6BLDotqTQFLmam7o5p-79" value="(1,M)" style="edgeLabel;html=1;align=center;verticalAlign=middle;resizable=0;points=[];" parent="Nq6BLDotqTQFLmam7o5p-46" vertex="1" connectable="0">
          <mxGeometry x="-0.0279" relative="1" as="geometry">
            <mxPoint as="offset" />
          </mxGeometry>
        </mxCell>
        <mxCell id="Nq6BLDotqTQFLmam7o5p-44" value="HAVE_MATCH_RESULTS" style="rhombus;whiteSpace=wrap;html=1;fillColor=#CCCCCC;strokeColor=default;" parent="1" vertex="1">
          <mxGeometry x="-305" y="-130" width="170" height="60" as="geometry" />
        </mxCell>
        <mxCell id="Nq6BLDotqTQFLmam7o5p-49" style="rounded=0;orthogonalLoop=1;jettySize=auto;html=1;exitX=1;exitY=0.5;exitDx=0;exitDy=0;entryX=0;entryY=0.5;entryDx=0;entryDy=0;endArrow=none;endFill=0;" parent="1" source="Nq6BLDotqTQFLmam7o5p-47" target="Nq6BLDotqTQFLmam7o5p-37" edge="1">
          <mxGeometry relative="1" as="geometry" />
        </mxCell>
        <mxCell id="Nq6BLDotqTQFLmam7o5p-73" value="(1,1)" style="edgeLabel;html=1;align=center;verticalAlign=middle;resizable=0;points=[];" parent="Nq6BLDotqTQFLmam7o5p-49" vertex="1" connectable="0">
          <mxGeometry x="-0.006" relative="1" as="geometry">
            <mxPoint as="offset" />
          </mxGeometry>
        </mxCell>
        <mxCell id="Nq6BLDotqTQFLmam7o5p-47" value="HAVE" style="rhombus;whiteSpace=wrap;html=1;fillColor=#CCCCCC;strokeColor=default;" parent="1" vertex="1">
          <mxGeometry x="-285" y="245" width="130" height="60" as="geometry" />
        </mxCell>
        <mxCell id="Nq6BLDotqTQFLmam7o5p-50" value="HAVE_PLAYER_STATS" style="rhombus;whiteSpace=wrap;html=1;fillColor=#CCCCCC;strokeColor=default;" parent="1" vertex="1">
          <mxGeometry x="-32.5" y="565" width="165" height="60" as="geometry" />
        </mxCell>
        <mxCell id="Nq6BLDotqTQFLmam7o5p-55" style="rounded=0;orthogonalLoop=1;jettySize=auto;html=1;exitX=1;exitY=0.5;exitDx=0;exitDy=0;entryX=0;entryY=0.5;entryDx=0;entryDy=0;endArrow=none;endFill=0;" parent="1" source="Nq6BLDotqTQFLmam7o5p-53" target="Nq6BLDotqTQFLmam7o5p-37" edge="1">
          <mxGeometry relative="1" as="geometry" />
        </mxCell>
        <mxCell id="Nq6BLDotqTQFLmam7o5p-77" value="(0,M)" style="edgeLabel;html=1;align=center;verticalAlign=middle;resizable=0;points=[];" parent="Nq6BLDotqTQFLmam7o5p-55" vertex="1" connectable="0">
          <mxGeometry x="-0.2982" y="1" relative="1" as="geometry">
            <mxPoint as="offset" />
          </mxGeometry>
        </mxCell>
        <mxCell id="Nq6BLDotqTQFLmam7o5p-53" value="PARTICIPATED" style="rhombus;whiteSpace=wrap;html=1;fillColor=#CCCCCC;strokeColor=default;" parent="1" vertex="1">
          <mxGeometry x="-285" y="110" width="130" height="60" as="geometry" />
        </mxCell>
        <mxCell id="Nq6BLDotqTQFLmam7o5p-84" value="&lt;u&gt;coach_id&lt;/u&gt;" style="ellipse;whiteSpace=wrap;html=1;" parent="1" vertex="1">
          <mxGeometry x="-1161.46" y="-170" width="80" height="30" as="geometry" />
        </mxCell>
        <mxCell id="x3Jfu9dbNZR2VIMgYm1r-3" value="first_name" style="ellipse;whiteSpace=wrap;html=1;" parent="1" vertex="1">
          <mxGeometry x="-1061.46" y="-205" width="80" height="30" as="geometry" />
        </mxCell>
        <mxCell id="x3Jfu9dbNZR2VIMgYm1r-6" style="rounded=0;orthogonalLoop=1;jettySize=auto;html=1;entryX=0;entryY=0.5;entryDx=0;entryDy=0;endArrow=none;endFill=0;" parent="1" source="x3Jfu9dbNZR2VIMgYm1r-5" target="Nq6BLDotqTQFLmam7o5p-8" edge="1">
          <mxGeometry relative="1" as="geometry" />
        </mxCell>
        <mxCell id="x3Jfu9dbNZR2VIMgYm1r-5" value="last_name" style="ellipse;whiteSpace=wrap;html=1;" parent="1" vertex="1">
          <mxGeometry x="-1151.46" y="-76.78999999999999" width="80" height="30" as="geometry" />
        </mxCell>
        <mxCell id="x3Jfu9dbNZR2VIMgYm1r-9" value="experience_years" style="ellipse;whiteSpace=wrap;html=1;" parent="1" vertex="1">
          <mxGeometry x="-1120" y="-30" width="120" height="30" as="geometry" />
        </mxCell>
        <mxCell id="x3Jfu9dbNZR2VIMgYm1r-10" style="rounded=0;orthogonalLoop=1;jettySize=auto;html=1;entryX=0.5;entryY=0;entryDx=0;entryDy=0;endArrow=none;endFill=0;exitX=0;exitY=0.5;exitDx=0;exitDy=0;" parent="1" source="Nq6BLDotqTQFLmam7o5p-8" target="x3Jfu9dbNZR2VIMgYm1r-9" edge="1">
          <mxGeometry relative="1" as="geometry" />
        </mxCell>
        <mxCell id="x3Jfu9dbNZR2VIMgYm1r-16" style="rounded=0;orthogonalLoop=1;jettySize=auto;html=1;entryX=0.5;entryY=0;entryDx=0;entryDy=0;endArrow=none;endFill=0;" parent="1" source="x3Jfu9dbNZR2VIMgYm1r-11" target="Nq6BLDotqTQFLmam7o5p-9" edge="1">
          <mxGeometry relative="1" as="geometry" />
        </mxCell>
        <mxCell id="x3Jfu9dbNZR2VIMgYm1r-11" value="&lt;u&gt;team_id&lt;/u&gt;" style="ellipse;whiteSpace=wrap;html=1;" parent="1" vertex="1">
          <mxGeometry x="-661.46" y="-166.79" width="80" height="30" as="geometry" />
        </mxCell>
        <mxCell id="x3Jfu9dbNZR2VIMgYm1r-17" style="rounded=0;orthogonalLoop=1;jettySize=auto;html=1;entryX=0.5;entryY=0;entryDx=0;entryDy=0;endArrow=none;endFill=0;" parent="1" source="x3Jfu9dbNZR2VIMgYm1r-12" target="Nq6BLDotqTQFLmam7o5p-9" edge="1">
          <mxGeometry relative="1" as="geometry" />
        </mxCell>
        <mxCell id="x3Jfu9dbNZR2VIMgYm1r-12" value="name" style="ellipse;whiteSpace=wrap;html=1;" parent="1" vertex="1">
          <mxGeometry x="-561.46" y="-216.79" width="80" height="30" as="geometry" />
        </mxCell>
        <mxCell id="x3Jfu9dbNZR2VIMgYm1r-19" style="rounded=0;orthogonalLoop=1;jettySize=auto;html=1;entryX=0.5;entryY=0;entryDx=0;entryDy=0;endArrow=none;endFill=0;" parent="1" target="Nq6BLDotqTQFLmam7o5p-9" edge="1">
          <mxGeometry relative="1" as="geometry">
            <mxPoint x="-448.81764515525305" y="-140.84694193789855" as="sourcePoint" />
          </mxGeometry>
        </mxCell>
        <mxCell id="x3Jfu9dbNZR2VIMgYm1r-14" value="founded_year" style="ellipse;whiteSpace=wrap;html=1;" parent="1" vertex="1">
          <mxGeometry x="-460" y="-166.79" width="80" height="30" as="geometry" />
        </mxCell>
        <mxCell id="x3Jfu9dbNZR2VIMgYm1r-25" style="edgeStyle=none;shape=connector;rounded=0;orthogonalLoop=1;jettySize=auto;html=1;entryX=0.5;entryY=0;entryDx=0;entryDy=0;strokeColor=default;align=center;verticalAlign=middle;fontFamily=Helvetica;fontSize=11;fontColor=default;labelBackgroundColor=default;endArrow=none;endFill=0;" parent="1" source="x3Jfu9dbNZR2VIMgYm1r-20" target="Nq6BLDotqTQFLmam7o5p-10" edge="1">
          <mxGeometry relative="1" as="geometry" />
        </mxCell>
        <mxCell id="x3Jfu9dbNZR2VIMgYm1r-20" value="&lt;u&gt;results_id&lt;/u&gt;" style="ellipse;whiteSpace=wrap;html=1;" parent="1" vertex="1">
          <mxGeometry x="-50" y="-200" width="80" height="30" as="geometry" />
        </mxCell>
        <mxCell id="x3Jfu9dbNZR2VIMgYm1r-38" style="edgeStyle=none;shape=connector;rounded=0;orthogonalLoop=1;jettySize=auto;html=1;entryX=0;entryY=0.5;entryDx=0;entryDy=0;strokeColor=default;align=center;verticalAlign=middle;fontFamily=Helvetica;fontSize=11;fontColor=default;labelBackgroundColor=default;endArrow=none;endFill=0;" parent="1" source="x3Jfu9dbNZR2VIMgYm1r-29" target="Nq6BLDotqTQFLmam7o5p-11" edge="1">
          <mxGeometry relative="1" as="geometry" />
        </mxCell>
        <mxCell id="x3Jfu9dbNZR2VIMgYm1r-29" value="first_name" style="ellipse;whiteSpace=wrap;html=1;" parent="1" vertex="1">
          <mxGeometry x="-885" y="180" width="80" height="30" as="geometry" />
        </mxCell>
        <mxCell id="x3Jfu9dbNZR2VIMgYm1r-37" style="edgeStyle=none;shape=connector;rounded=0;orthogonalLoop=1;jettySize=auto;html=1;entryX=0;entryY=0.5;entryDx=0;entryDy=0;strokeColor=default;align=center;verticalAlign=middle;fontFamily=Helvetica;fontSize=11;fontColor=default;labelBackgroundColor=default;endArrow=none;endFill=0;" parent="1" source="x3Jfu9dbNZR2VIMgYm1r-30" target="Nq6BLDotqTQFLmam7o5p-11" edge="1">
          <mxGeometry relative="1" as="geometry" />
        </mxCell>
        <mxCell id="x3Jfu9dbNZR2VIMgYm1r-30" value="last_name" style="ellipse;whiteSpace=wrap;html=1;" parent="1" vertex="1">
          <mxGeometry x="-980" y="210" width="80" height="30" as="geometry" />
        </mxCell>
        <mxCell id="x3Jfu9dbNZR2VIMgYm1r-36" style="edgeStyle=none;shape=connector;rounded=0;orthogonalLoop=1;jettySize=auto;html=1;entryX=0;entryY=0.5;entryDx=0;entryDy=0;strokeColor=default;align=center;verticalAlign=middle;fontFamily=Helvetica;fontSize=11;fontColor=default;labelBackgroundColor=default;endArrow=none;endFill=0;" parent="1" source="x3Jfu9dbNZR2VIMgYm1r-31" target="Nq6BLDotqTQFLmam7o5p-11" edge="1">
          <mxGeometry relative="1" as="geometry" />
        </mxCell>
        <mxCell id="x3Jfu9dbNZR2VIMgYm1r-31" value="&lt;u&gt;player_id&lt;/u&gt;" style="ellipse;whiteSpace=wrap;html=1;" parent="1" vertex="1">
          <mxGeometry x="-980" y="309" width="80" height="30" as="geometry" />
        </mxCell>
        <mxCell id="x3Jfu9dbNZR2VIMgYm1r-34" style="edgeStyle=none;shape=connector;rounded=0;orthogonalLoop=1;jettySize=auto;html=1;entryX=0;entryY=0.5;entryDx=0;entryDy=0;strokeColor=default;align=center;verticalAlign=middle;fontFamily=Helvetica;fontSize=11;fontColor=default;labelBackgroundColor=default;endArrow=none;endFill=0;" parent="1" source="x3Jfu9dbNZR2VIMgYm1r-33" target="Nq6BLDotqTQFLmam7o5p-11" edge="1">
          <mxGeometry relative="1" as="geometry" />
        </mxCell>
        <mxCell id="x3Jfu9dbNZR2VIMgYm1r-33" value="date_of_birth" style="ellipse;whiteSpace=wrap;html=1;" parent="1" vertex="1">
          <mxGeometry x="-885" y="338" width="80" height="30" as="geometry" />
        </mxCell>
        <mxCell id="x3Jfu9dbNZR2VIMgYm1r-45" style="edgeStyle=none;shape=connector;rounded=0;orthogonalLoop=1;jettySize=auto;html=1;entryX=0.5;entryY=1;entryDx=0;entryDy=0;strokeColor=default;align=center;verticalAlign=middle;fontFamily=Helvetica;fontSize=11;fontColor=default;labelBackgroundColor=default;endArrow=none;endFill=0;" parent="1" source="x3Jfu9dbNZR2VIMgYm1r-39" target="Nq6BLDotqTQFLmam7o5p-16" edge="1">
          <mxGeometry relative="1" as="geometry" />
        </mxCell>
        <mxCell id="x3Jfu9dbNZR2VIMgYm1r-39" value="&lt;u&gt;stat_id&lt;/u&gt;" style="ellipse;whiteSpace=wrap;html=1;" parent="1" vertex="1">
          <mxGeometry x="-930" y="640" width="80" height="30" as="geometry" />
        </mxCell>
        <mxCell id="x3Jfu9dbNZR2VIMgYm1r-46" style="edgeStyle=none;shape=connector;rounded=0;orthogonalLoop=1;jettySize=auto;html=1;entryX=0.5;entryY=1;entryDx=0;entryDy=0;strokeColor=default;align=center;verticalAlign=middle;fontFamily=Helvetica;fontSize=11;fontColor=default;labelBackgroundColor=default;endArrow=none;endFill=0;" parent="1" source="x3Jfu9dbNZR2VIMgYm1r-40" target="Nq6BLDotqTQFLmam7o5p-16" edge="1">
          <mxGeometry relative="1" as="geometry" />
        </mxCell>
        <mxCell id="x3Jfu9dbNZR2VIMgYm1r-40" value="score" style="ellipse;whiteSpace=wrap;html=1;" parent="1" vertex="1">
          <mxGeometry x="-870" y="690" width="80" height="30" as="geometry" />
        </mxCell>
        <mxCell id="x3Jfu9dbNZR2VIMgYm1r-57" style="edgeStyle=none;shape=connector;rounded=0;orthogonalLoop=1;jettySize=auto;html=1;entryX=1;entryY=0.5;entryDx=0;entryDy=0;strokeColor=default;align=center;verticalAlign=middle;fontFamily=Helvetica;fontSize=11;fontColor=default;labelBackgroundColor=default;endArrow=none;endFill=0;" parent="1" source="x3Jfu9dbNZR2VIMgYm1r-49" target="Nq6BLDotqTQFLmam7o5p-15" edge="1">
          <mxGeometry relative="1" as="geometry" />
        </mxCell>
        <mxCell id="x3Jfu9dbNZR2VIMgYm1r-49" value="last_name" style="ellipse;whiteSpace=wrap;html=1;" parent="1" vertex="1">
          <mxGeometry x="640" y="70" width="80" height="30" as="geometry" />
        </mxCell>
        <mxCell id="x3Jfu9dbNZR2VIMgYm1r-55" style="edgeStyle=none;shape=connector;rounded=0;orthogonalLoop=1;jettySize=auto;html=1;entryX=1;entryY=0.5;entryDx=0;entryDy=0;strokeColor=default;align=center;verticalAlign=middle;fontFamily=Helvetica;fontSize=11;fontColor=default;labelBackgroundColor=default;endArrow=none;endFill=0;" parent="1" source="x3Jfu9dbNZR2VIMgYm1r-50" target="Nq6BLDotqTQFLmam7o5p-15" edge="1">
          <mxGeometry relative="1" as="geometry" />
        </mxCell>
        <mxCell id="x3Jfu9dbNZR2VIMgYm1r-50" value="experience_years" style="ellipse;whiteSpace=wrap;html=1;" parent="1" vertex="1">
          <mxGeometry x="630" y="180" width="110" height="30" as="geometry" />
        </mxCell>
        <mxCell id="x3Jfu9dbNZR2VIMgYm1r-58" style="edgeStyle=none;shape=connector;rounded=0;orthogonalLoop=1;jettySize=auto;html=1;entryX=1;entryY=0.5;entryDx=0;entryDy=0;strokeColor=default;align=center;verticalAlign=middle;fontFamily=Helvetica;fontSize=11;fontColor=default;labelBackgroundColor=default;endArrow=none;endFill=0;" parent="1" source="x3Jfu9dbNZR2VIMgYm1r-51" target="Nq6BLDotqTQFLmam7o5p-15" edge="1">
          <mxGeometry relative="1" as="geometry" />
        </mxCell>
        <mxCell id="x3Jfu9dbNZR2VIMgYm1r-51" value="first_name" style="ellipse;whiteSpace=wrap;html=1;" parent="1" vertex="1">
          <mxGeometry x="540" y="40" width="80" height="30" as="geometry" />
        </mxCell>
        <mxCell id="x3Jfu9dbNZR2VIMgYm1r-54" style="edgeStyle=none;shape=connector;rounded=0;orthogonalLoop=1;jettySize=auto;html=1;entryX=1;entryY=0.5;entryDx=0;entryDy=0;strokeColor=default;align=center;verticalAlign=middle;fontFamily=Helvetica;fontSize=11;fontColor=default;labelBackgroundColor=default;endArrow=none;endFill=0;" parent="1" source="x3Jfu9dbNZR2VIMgYm1r-52" target="Nq6BLDotqTQFLmam7o5p-15" edge="1">
          <mxGeometry relative="1" as="geometry" />
        </mxCell>
        <mxCell id="x3Jfu9dbNZR2VIMgYm1r-52" value="matches_officiated" style="ellipse;whiteSpace=wrap;html=1;dashed=1;" parent="1" vertex="1">
          <mxGeometry x="500" y="210" width="120" height="30" as="geometry" />
        </mxCell>
        <mxCell id="x3Jfu9dbNZR2VIMgYm1r-56" style="edgeStyle=none;shape=connector;rounded=0;orthogonalLoop=1;jettySize=auto;html=1;entryX=1;entryY=0.5;entryDx=0;entryDy=0;strokeColor=default;align=center;verticalAlign=middle;fontFamily=Helvetica;fontSize=11;fontColor=default;labelBackgroundColor=default;endArrow=none;endFill=0;" parent="1" source="x3Jfu9dbNZR2VIMgYm1r-53" target="Nq6BLDotqTQFLmam7o5p-15" edge="1">
          <mxGeometry relative="1" as="geometry" />
        </mxCell>
        <mxCell id="x3Jfu9dbNZR2VIMgYm1r-53" value="&lt;u&gt;refree_id&lt;/u&gt;" style="ellipse;whiteSpace=wrap;html=1;" parent="1" vertex="1">
          <mxGeometry x="680" y="125" width="80" height="30" as="geometry" />
        </mxCell>
        <mxCell id="x3Jfu9dbNZR2VIMgYm1r-64" style="edgeStyle=none;shape=connector;rounded=0;orthogonalLoop=1;jettySize=auto;html=1;entryX=1;entryY=0.5;entryDx=0;entryDy=0;strokeColor=default;align=center;verticalAlign=middle;fontFamily=Helvetica;fontSize=11;fontColor=default;labelBackgroundColor=default;endArrow=none;endFill=0;" parent="1" source="x3Jfu9dbNZR2VIMgYm1r-60" target="Nq6BLDotqTQFLmam7o5p-13" edge="1">
          <mxGeometry relative="1" as="geometry" />
        </mxCell>
        <mxCell id="x3Jfu9dbNZR2VIMgYm1r-60" value="&lt;u&gt;sports_id&lt;/u&gt;" style="ellipse;whiteSpace=wrap;html=1;" parent="1" vertex="1">
          <mxGeometry x="-150" y="330" width="80" height="30" as="geometry" />
        </mxCell>
        <mxCell id="x3Jfu9dbNZR2VIMgYm1r-65" style="edgeStyle=none;shape=connector;rounded=0;orthogonalLoop=1;jettySize=auto;html=1;entryX=1;entryY=0.5;entryDx=0;entryDy=0;strokeColor=default;align=center;verticalAlign=middle;fontFamily=Helvetica;fontSize=11;fontColor=default;labelBackgroundColor=default;endArrow=none;endFill=0;" parent="1" source="x3Jfu9dbNZR2VIMgYm1r-61" target="Nq6BLDotqTQFLmam7o5p-13" edge="1">
          <mxGeometry relative="1" as="geometry" />
        </mxCell>
        <mxCell id="x3Jfu9dbNZR2VIMgYm1r-61" value="name" style="ellipse;whiteSpace=wrap;html=1;" parent="1" vertex="1">
          <mxGeometry x="-70" y="380" width="80" height="30" as="geometry" />
        </mxCell>
        <mxCell id="x3Jfu9dbNZR2VIMgYm1r-66" style="edgeStyle=none;shape=connector;rounded=0;orthogonalLoop=1;jettySize=auto;html=1;entryX=1;entryY=0.5;entryDx=0;entryDy=0;strokeColor=default;align=center;verticalAlign=middle;fontFamily=Helvetica;fontSize=11;fontColor=default;labelBackgroundColor=default;endArrow=none;endFill=0;" parent="1" source="x3Jfu9dbNZR2VIMgYm1r-62" target="Nq6BLDotqTQFLmam7o5p-13" edge="1">
          <mxGeometry relative="1" as="geometry" />
        </mxCell>
        <mxCell id="x3Jfu9dbNZR2VIMgYm1r-62" value="description" style="ellipse;whiteSpace=wrap;html=1;" parent="1" vertex="1">
          <mxGeometry x="-70" y="450" width="80" height="30" as="geometry" />
        </mxCell>
        <mxCell id="x3Jfu9dbNZR2VIMgYm1r-70" style="edgeStyle=none;shape=connector;rounded=0;orthogonalLoop=1;jettySize=auto;html=1;entryX=1;entryY=0.5;entryDx=0;entryDy=0;strokeColor=default;align=center;verticalAlign=middle;fontFamily=Helvetica;fontSize=11;fontColor=default;labelBackgroundColor=default;endArrow=none;endFill=0;" parent="1" source="x3Jfu9dbNZR2VIMgYm1r-68" target="Nq6BLDotqTQFLmam7o5p-13" edge="1">
          <mxGeometry relative="1" as="geometry" />
        </mxCell>
        <mxCell id="x3Jfu9dbNZR2VIMgYm1r-68" value="rules" style="ellipse;shape=doubleEllipse;margin=3;whiteSpace=wrap;html=1;align=center;fontFamily=Helvetica;fontSize=11;fontColor=default;labelBackgroundColor=default;" parent="1" vertex="1">
          <mxGeometry x="-140" y="495" width="80" height="35" as="geometry" />
        </mxCell>
        <mxCell id="x3Jfu9dbNZR2VIMgYm1r-78" style="edgeStyle=none;shape=connector;rounded=0;orthogonalLoop=1;jettySize=auto;html=1;entryX=0;entryY=0.5;entryDx=0;entryDy=0;strokeColor=default;align=center;verticalAlign=middle;fontFamily=Helvetica;fontSize=11;fontColor=default;labelBackgroundColor=default;endArrow=none;endFill=0;" parent="1" source="x3Jfu9dbNZR2VIMgYm1r-71" target="Nq6BLDotqTQFLmam7o5p-12" edge="1">
          <mxGeometry relative="1" as="geometry" />
        </mxCell>
        <mxCell id="x3Jfu9dbNZR2VIMgYm1r-71" value="name" style="ellipse;whiteSpace=wrap;html=1;" parent="1" vertex="1">
          <mxGeometry x="-540" y="200" width="80" height="30" as="geometry" />
        </mxCell>
        <mxCell id="x3Jfu9dbNZR2VIMgYm1r-77" style="edgeStyle=none;shape=connector;rounded=0;orthogonalLoop=1;jettySize=auto;html=1;entryX=0;entryY=0.5;entryDx=0;entryDy=0;strokeColor=default;align=center;verticalAlign=middle;fontFamily=Helvetica;fontSize=11;fontColor=default;labelBackgroundColor=default;endArrow=none;endFill=0;" parent="1" source="x3Jfu9dbNZR2VIMgYm1r-72" target="Nq6BLDotqTQFLmam7o5p-12" edge="1">
          <mxGeometry relative="1" as="geometry" />
        </mxCell>
        <mxCell id="x3Jfu9dbNZR2VIMgYm1r-72" value="location" style="ellipse;whiteSpace=wrap;html=1;" parent="1" vertex="1">
          <mxGeometry x="-620" y="220" width="80" height="30" as="geometry" />
        </mxCell>
        <mxCell id="x3Jfu9dbNZR2VIMgYm1r-76" style="edgeStyle=none;shape=connector;rounded=0;orthogonalLoop=1;jettySize=auto;html=1;entryX=0;entryY=0.5;entryDx=0;entryDy=0;strokeColor=default;align=center;verticalAlign=middle;fontFamily=Helvetica;fontSize=11;fontColor=default;labelBackgroundColor=default;endArrow=none;endFill=0;exitX=1;exitY=0.5;exitDx=0;exitDy=0;" parent="1" source="x3Jfu9dbNZR2VIMgYm1r-73" target="Nq6BLDotqTQFLmam7o5p-12" edge="1">
          <mxGeometry relative="1" as="geometry">
            <mxPoint x="-585" y="275" as="sourcePoint" />
          </mxGeometry>
        </mxCell>
        <mxCell id="x3Jfu9dbNZR2VIMgYm1r-73" value="&lt;u&gt;tournament_id&lt;/u&gt;" style="ellipse;whiteSpace=wrap;html=1;" parent="1" vertex="1">
          <mxGeometry x="-660" y="260" width="95" height="30" as="geometry" />
        </mxCell>
        <mxCell id="x3Jfu9dbNZR2VIMgYm1r-79" style="edgeStyle=none;shape=connector;rounded=0;orthogonalLoop=1;jettySize=auto;html=1;entryX=0;entryY=0.5;entryDx=0;entryDy=0;strokeColor=default;align=center;verticalAlign=middle;fontFamily=Helvetica;fontSize=11;fontColor=default;labelBackgroundColor=default;endArrow=none;endFill=0;" parent="1" source="x3Jfu9dbNZR2VIMgYm1r-74" target="Nq6BLDotqTQFLmam7o5p-12" edge="1">
          <mxGeometry relative="1" as="geometry" />
        </mxCell>
        <mxCell id="x3Jfu9dbNZR2VIMgYm1r-74" value="end_date" style="ellipse;whiteSpace=wrap;html=1;" parent="1" vertex="1">
          <mxGeometry x="-620" y="300" width="80" height="30" as="geometry" />
        </mxCell>
        <mxCell id="x3Jfu9dbNZR2VIMgYm1r-80" style="edgeStyle=none;shape=connector;rounded=0;orthogonalLoop=1;jettySize=auto;html=1;entryX=0;entryY=0.5;entryDx=0;entryDy=0;strokeColor=default;align=center;verticalAlign=middle;fontFamily=Helvetica;fontSize=11;fontColor=default;labelBackgroundColor=default;endArrow=none;endFill=0;" parent="1" source="x3Jfu9dbNZR2VIMgYm1r-75" target="Nq6BLDotqTQFLmam7o5p-12" edge="1">
          <mxGeometry relative="1" as="geometry" />
        </mxCell>
        <mxCell id="x3Jfu9dbNZR2VIMgYm1r-75" value="start_date" style="ellipse;whiteSpace=wrap;html=1;" parent="1" vertex="1">
          <mxGeometry x="-540" y="320" width="80" height="30" as="geometry" />
        </mxCell>
        <mxCell id="x3Jfu9dbNZR2VIMgYm1r-89" style="edgeStyle=none;shape=connector;rounded=0;orthogonalLoop=1;jettySize=auto;html=1;entryX=1;entryY=1;entryDx=0;entryDy=0;strokeColor=default;align=center;verticalAlign=middle;fontFamily=Helvetica;fontSize=11;fontColor=default;labelBackgroundColor=default;endArrow=none;endFill=0;" parent="1" source="x3Jfu9dbNZR2VIMgYm1r-84" target="Nq6BLDotqTQFLmam7o5p-37" edge="1">
          <mxGeometry relative="1" as="geometry" />
        </mxCell>
        <mxCell id="x3Jfu9dbNZR2VIMgYm1r-84" value="location" style="ellipse;whiteSpace=wrap;html=1;" parent="1" vertex="1">
          <mxGeometry x="190" y="190" width="80" height="30" as="geometry" />
        </mxCell>
        <mxCell id="x3Jfu9dbNZR2VIMgYm1r-88" style="edgeStyle=none;shape=connector;rounded=0;orthogonalLoop=1;jettySize=auto;html=1;entryX=1;entryY=1;entryDx=0;entryDy=0;strokeColor=default;align=center;verticalAlign=middle;fontFamily=Helvetica;fontSize=11;fontColor=default;labelBackgroundColor=default;endArrow=none;endFill=0;" parent="1" source="x3Jfu9dbNZR2VIMgYm1r-85" target="Nq6BLDotqTQFLmam7o5p-37" edge="1">
          <mxGeometry relative="1" as="geometry" />
        </mxCell>
        <mxCell id="x3Jfu9dbNZR2VIMgYm1r-85" value="match_date" style="ellipse;whiteSpace=wrap;html=1;" parent="1" vertex="1">
          <mxGeometry x="160" y="240" width="80" height="30" as="geometry" />
        </mxCell>
        <mxCell id="x3Jfu9dbNZR2VIMgYm1r-87" style="edgeStyle=none;shape=connector;rounded=0;orthogonalLoop=1;jettySize=auto;html=1;entryX=1;entryY=1;entryDx=0;entryDy=0;strokeColor=default;align=center;verticalAlign=middle;fontFamily=Helvetica;fontSize=11;fontColor=default;labelBackgroundColor=default;endArrow=none;endFill=0;" parent="1" source="x3Jfu9dbNZR2VIMgYm1r-86" target="Nq6BLDotqTQFLmam7o5p-37" edge="1">
          <mxGeometry relative="1" as="geometry" />
        </mxCell>
        <mxCell id="x3Jfu9dbNZR2VIMgYm1r-86" value="&lt;u&gt;match_id&lt;/u&gt;" style="ellipse;whiteSpace=wrap;html=1;" parent="1" vertex="1">
          <mxGeometry x="80" y="270" width="80" height="30" as="geometry" />
        </mxCell>
        <mxCell id="3KthBSS_AW7qmMhfz2ii-5" style="rounded=0;orthogonalLoop=1;jettySize=auto;html=1;entryX=0.5;entryY=0;entryDx=0;entryDy=0;endArrow=none;endFill=0;" edge="1" parent="1" source="3KthBSS_AW7qmMhfz2ii-4" target="Nq6BLDotqTQFLmam7o5p-10">
          <mxGeometry relative="1" as="geometry" />
        </mxCell>
        <mxCell id="3KthBSS_AW7qmMhfz2ii-4" value="teams_result" style="ellipse;shape=doubleEllipse;margin=3;whiteSpace=wrap;html=1;align=center;" vertex="1" parent="1">
          <mxGeometry x="70" y="-210" width="100" height="40" as="geometry" />
        </mxCell>
        <mxCell id="3KthBSS_AW7qmMhfz2ii-7" style="edgeStyle=none;shape=connector;rounded=0;orthogonalLoop=1;jettySize=auto;html=1;entryX=0;entryY=0.5;entryDx=0;entryDy=0;strokeColor=default;align=center;verticalAlign=middle;fontFamily=Helvetica;fontSize=11;fontColor=default;labelBackgroundColor=default;endArrow=none;endFill=0;" edge="1" parent="1" source="3KthBSS_AW7qmMhfz2ii-6" target="Nq6BLDotqTQFLmam7o5p-8">
          <mxGeometry relative="1" as="geometry" />
        </mxCell>
        <mxCell id="3KthBSS_AW7qmMhfz2ii-6" value="matches_coached" style="ellipse;whiteSpace=wrap;html=1;dashed=1;" vertex="1" parent="1">
          <mxGeometry x="-1240" y="-115" width="120" height="30" as="geometry" />
        </mxCell>
        <mxCell id="3KthBSS_AW7qmMhfz2ii-9" style="edgeStyle=none;shape=connector;rounded=0;orthogonalLoop=1;jettySize=auto;html=1;entryX=0;entryY=0.5;entryDx=0;entryDy=0;strokeColor=default;align=center;verticalAlign=middle;fontFamily=Helvetica;fontSize=11;fontColor=default;labelBackgroundColor=default;endArrow=none;endFill=0;" edge="1" parent="1" source="3KthBSS_AW7qmMhfz2ii-8" target="Nq6BLDotqTQFLmam7o5p-11">
          <mxGeometry relative="1" as="geometry" />
        </mxCell>
        <mxCell id="3KthBSS_AW7qmMhfz2ii-8" value="matches_played" style="ellipse;whiteSpace=wrap;html=1;dashed=1;" vertex="1" parent="1">
          <mxGeometry x="-1050" y="260" width="120" height="30" as="geometry" />
        </mxCell>
      </root>
    </mxGraphModel>
  </diagram>
</mxfile>
